<svg width="188" height="52" viewBox="0 0 188 52" fill="none" xmlns="http://www.w3.org/2000/svg">
<path d="M88.9683 16C86.9013 16 84.8807 16.6156 83.162 17.7691C81.4433 18.9225 80.1038 20.5619 79.3127 22.48C78.5217 24.3981 78.3148 26.5087 78.718 28.5449C79.1213 30.5812 80.1166 32.4516 81.5783 33.9196C83.0399 35.3877 84.9021 36.3874 86.9294 36.7924C88.9567 37.1975 91.0581 36.9896 92.9678 36.1951C94.8775 35.4006 96.5098 34.0552 97.6581 32.3289C98.8065 30.6027 99.4195 28.5732 99.4195 26.4971C99.4195 23.7131 98.3184 21.0431 96.3584 19.0745C94.3984 17.1059 91.7402 16 88.9683 16ZM88.9683 32.0442C87.876 32.0437 86.8084 31.7179 85.9004 31.108C84.9924 30.4981 84.2849 29.6315 83.8673 28.6177C83.4497 27.6039 83.3408 26.4885 83.5544 25.4126C83.7679 24.3366 84.2943 23.3485 85.0671 22.573C85.8398 21.7976 86.8241 21.2697 87.8955 21.0561C88.9669 20.8425 90.0773 20.9528 91.0863 21.3731C92.0953 21.7934 92.9576 22.5047 93.564 23.4172C94.1705 24.3297 94.494 25.4023 94.4935 26.4994C94.4932 27.2279 94.35 27.9491 94.0722 28.622C93.7944 29.2949 93.3873 29.9062 92.8743 30.4211C92.3612 30.936 91.7522 31.3443 91.082 31.6228C90.4118 31.9013 89.6936 32.0445 88.9683 32.0442ZM171.549 16C169.482 16 167.461 16.6156 165.743 17.7691C164.024 18.9225 162.684 20.5619 161.893 22.48C161.102 24.3981 160.895 26.5087 161.299 28.5449C161.702 30.5812 162.697 32.4516 164.159 33.9196C165.62 35.3877 167.483 36.3874 169.51 36.7924C171.537 37.1975 173.639 36.9896 175.548 36.1951C177.458 35.4006 179.09 34.0552 180.239 32.3289C181.387 30.6027 182 28.5732 182 26.4971C182 25.1186 181.73 23.7536 181.204 22.48C180.679 21.2065 179.909 20.0493 178.939 19.0745C177.968 18.0998 176.816 17.3266 175.548 16.799C174.28 16.2715 172.921 16 171.549 16ZM171.549 32.0442C170.456 32.0442 169.389 31.7188 168.48 31.1092C167.572 30.4995 166.864 29.6331 166.446 28.6193C166.028 27.6056 165.919 26.4901 166.132 25.414C166.346 24.3379 166.872 23.3495 167.644 22.5738C168.417 21.7982 169.401 21.27 170.473 21.0563C171.544 20.8425 172.655 20.9527 173.664 21.3729C174.673 21.7931 175.535 22.5044 176.142 23.417C176.749 24.3295 177.072 25.4022 177.072 26.4994C177.071 27.9698 176.489 29.3798 175.454 30.4195C174.419 31.4592 173.015 32.0436 171.551 32.0442H171.549ZM117.501 30.5L117.5 30.5011C117.499 33.7082 115.024 37.0315 109.871 36.9965C105.575 36.9744 103.063 34.7252 101.843 32.6668C101.733 32.4816 101.801 32.2456 101.988 32.1376L104.871 30.4659C105.067 30.3521 105.317 30.4257 105.446 30.6127C106.41 32.012 108.327 32.7305 109.769 32.737C111.527 32.737 112.428 31.9789 112.428 30.9362C112.428 30.0544 111.829 29.3313 110.312 29.0094L107.715 28.4075C103.921 27.5654 102.204 25.2794 102.204 22.5128C102.204 18.9835 105.319 16.056 109.553 16.0537C113.712 16.0537 115.669 18.1231 116.745 20.0617C116.849 20.248 116.779 20.4806 116.594 20.587L113.164 22.5631C112.979 22.6695 112.744 22.6121 112.631 22.4314C111.954 21.3499 111.2 20.1225 109.599 20.1055C108.205 20.0892 107.084 20.9476 107.084 22.072C107.084 23.033 107.801 23.6349 108.879 23.8355L111.666 24.4373C115.544 25.2443 117.502 27.6115 117.502 30.4988L117.501 30.5ZM136.906 16.3686C137.127 16.3686 137.306 16.5477 137.306 16.7686V28.5988C137.306 30.826 136.425 32.962 134.857 34.5369C133.289 36.1117 131.163 36.9965 128.945 36.9965C126.728 36.9965 124.601 36.1117 123.033 34.5369C121.465 32.962 120.584 30.826 120.584 28.5988V16.7686C120.584 16.5477 120.763 16.3686 120.984 16.3686H125.062C125.282 16.3686 125.462 16.5477 125.462 16.7686V28.6338C125.462 29.5618 125.829 30.4518 126.482 31.108C127.135 31.7642 128.021 32.1328 128.945 32.1328C129.869 32.1328 130.755 31.7642 131.409 31.108C132.062 30.4518 132.429 29.5618 132.429 28.6338V16.7686C132.429 16.5477 132.608 16.3686 132.829 16.3686H136.906ZM72.028 29.5981C72.1514 29.414 72.3955 29.3465 72.5875 29.4571L76.1721 31.5211C76.3631 31.631 76.4298 31.8752 76.3134 32.0622C75.1663 33.9054 73.4756 35.3486 71.472 36.1874C69.346 37.0774 66.9868 37.2371 64.7611 36.6416C62.5354 36.0462 60.5679 34.7289 59.1644 32.8946C57.7609 31.0603 57 28.8116 57 26.4982C57 24.1848 57.7609 21.9362 59.1644 20.1019C60.5679 18.2676 62.5354 16.9503 64.7611 16.3549C66.9868 15.7594 69.346 15.9191 71.472 16.8091C73.4756 17.6479 75.1663 19.091 76.3134 20.9342C76.4298 21.1213 76.3631 21.3654 76.1721 21.4754L72.5875 23.5394C72.3955 23.65 72.1514 23.5824 72.028 23.3984C71.4258 22.5002 70.573 21.7959 69.5726 21.3766C68.4486 20.9056 67.2011 20.8209 66.0242 21.1355C64.8473 21.45 63.8068 22.1464 63.0646 23.1162C62.3224 24.086 61.92 25.275 61.92 26.4982C61.92 27.7215 62.3224 28.9104 63.0646 29.8803C63.8068 30.8501 64.8473 31.5464 66.0242 31.861C67.2011 32.1756 68.4486 32.0908 69.5726 31.6198C70.573 31.2006 71.4258 30.4963 72.028 29.5981Z" fill="#2451B2"/>
<path d="M141.511 36.6C141.511 36.8209 141.69 37 141.911 37H145.988C146.209 37 146.388 36.8209 146.388 36.6V21.6357C146.388 21.4148 146.567 21.2357 146.788 21.2357H150.31C151.234 21.2357 152.12 21.6044 152.773 22.2606C153.427 22.9168 153.794 23.8068 153.794 24.7348V36.6C153.794 36.8209 153.973 37 154.194 37H158.271C158.492 37 158.671 36.8209 158.671 36.6V24.7698C158.671 22.5426 157.79 20.4066 156.222 18.8317C154.654 17.2568 152.527 16.3721 150.31 16.3721L141.907 16.4379C141.688 16.4396 141.511 16.6181 141.511 16.8378L141.511 36.6Z" fill="#2451B2"/>
<path d="M25.8084 6C24.7668 5.99995 23.8392 5.9999 23.0693 6.06281C22.2477 6.12993 21.3881 6.28098 20.5491 6.70846C19.3261 7.33164 18.3317 8.32601 17.7085 9.54907C17.281 10.3881 17.13 11.2476 17.0629 12.0692C17 12.8391 17 13.7668 17.0001 14.8083V26.1917C17 27.2333 17 28.1609 17.0629 28.9308C17.13 29.7524 17.281 30.6119 17.7085 31.4509C18.3317 32.674 19.3261 33.6684 20.5491 34.2915C21.3881 34.719 22.2477 34.8701 23.0693 34.9372C23.8392 35.0001 24.7668 35.0001 25.8084 35L27.6 35C27.8209 35 28 34.8209 28 34.6V30.4C28 30.1791 27.8209 30 27.6 30H25.9001C24.7387 30 24.018 29.9981 23.4765 29.9538C22.9675 29.9122 22.8375 29.8459 22.8194 29.8367C22.5372 29.6929 22.3074 29.4632 22.1636 29.181C22.1543 29.1629 22.0878 29.0326 22.0463 28.5236C22.002 27.982 22.0001 27.2614 22.0001 26.1V14.9C22.0001 13.7386 22.002 13.018 22.0463 12.4764C22.0878 11.9674 22.1542 11.8374 22.1634 11.8194C22.3072 11.5371 22.5368 11.3073 22.8191 11.1635C22.8371 11.1543 22.9675 11.0878 23.4765 11.0462C24.018 11.002 24.7387 11 25.9001 11H37.1001C38.2614 11 38.9821 11.002 39.5237 11.0462C40.0326 11.0878 40.1626 11.1541 40.1807 11.1633C40.4629 11.3071 40.6928 11.5368 40.8366 11.819C40.8458 11.8371 40.9123 11.9674 40.9539 12.4764C40.9981 13.018 41.0001 13.7386 41.0001 14.9V26.1C41.0001 27.2614 40.9981 27.982 40.9539 28.5236C40.9123 29.0326 40.846 29.1626 40.8368 29.1806C40.6929 29.4629 40.4633 29.6927 40.1811 29.8365C40.163 29.8457 40.0326 29.9122 39.5237 29.9538C38.8189 30.0114 38.1079 30.0048 37.4 30.0012C37.1791 30.0001 37 30.1791 37 30.4V34.6C37 34.8209 37.1791 35.0001 37.4 35.0007C38.2439 35.0028 39.0899 35.0059 39.9308 34.9372C40.7524 34.8701 41.612 34.719 42.451 34.2915C43.6741 33.6684 44.6684 32.674 45.2916 31.4509C45.7191 30.6119 45.8701 29.7524 45.9373 28.9308C46.0002 28.1609 46.0001 27.2332 46.0001 26.1917V14.8083C46.0001 13.7668 46.0002 12.8391 45.9373 12.0692C45.8701 11.2476 45.7191 10.3881 45.2916 9.54907C44.6684 8.32601 43.6741 7.33164 42.451 6.70846C41.612 6.28098 40.7524 6.12993 39.9308 6.06281C39.1609 5.9999 38.2333 5.99995 37.1918 6H25.8084Z" fill="#2451B2"/>
<path d="M15 17.4001C15 17.1791 14.8209 17 14.6 16.9994C13.7562 16.9973 12.9102 16.9942 12.0692 17.0629C11.2476 17.13 10.3881 17.281 9.54907 17.7085C8.32601 18.3317 7.33164 19.3261 6.70846 20.5491C6.28098 21.3881 6.12993 22.2477 6.06281 23.0693C5.9999 23.8392 5.99995 24.7668 6 25.8084V37.1918C5.99995 38.2333 5.9999 39.1609 6.06281 39.9308C6.12993 40.7524 6.28098 41.612 6.70846 42.451C7.33164 43.6741 8.32601 44.6684 9.54907 45.2916C10.3881 45.7191 11.2476 45.8701 12.0692 45.9373C12.8391 46.0002 13.7668 46.0001 14.8083 46.0001H26.1917C27.2332 46.0001 28.1609 46.0002 28.9308 45.9373C29.7524 45.8701 30.6119 45.7191 31.4509 45.2916C32.674 44.6684 33.6684 43.6741 34.2915 42.451C34.719 41.612 34.8701 40.7524 34.9372 39.9308C35.0001 39.1609 35.0001 38.2333 35 37.1917V25.8084C35.0001 24.7668 35.0001 23.8392 34.9372 23.0693C34.8701 22.2477 34.719 21.3881 34.2915 20.5491C33.6684 19.3261 32.674 18.3317 31.4509 17.7085C30.6119 17.281 29.7524 17.13 28.9308 17.0629C28.1609 17 27.2333 17 26.1917 17.0001L24.4 17.0001C24.1791 17.0001 24 17.1792 24 17.4001V21.6001C24 21.821 24.1791 22.0001 24.4 22.0001H26.1C27.2614 22.0001 27.982 22.002 28.5236 22.0463C29.0326 22.0878 29.1626 22.1542 29.1806 22.1634C29.4629 22.3072 29.6927 22.5368 29.8365 22.8191C29.8457 22.8371 29.9122 22.9675 29.9538 23.4765C29.9981 24.018 30 24.7387 30 25.9001V37.1001C30 38.2614 29.9981 38.9821 29.9538 39.5237C29.9122 40.0326 29.8459 40.1626 29.8367 40.1807C29.6929 40.4629 29.4632 40.6928 29.181 40.8366C29.1629 40.8458 29.0326 40.9123 28.5236 40.9539C27.982 40.9981 27.2614 41.0001 26.1 41.0001H14.9C13.7386 41.0001 13.018 40.9981 12.4764 40.9539C11.9674 40.9123 11.8374 40.846 11.8194 40.8368C11.5371 40.6929 11.3073 40.4633 11.1635 40.1811C11.1543 40.163 11.0878 40.0326 11.0462 39.5237C11.002 38.9821 11 38.2614 11 37.1001V25.9001C11 24.7387 11.002 24.018 11.0462 23.4765C11.0878 22.9675 11.1541 22.8375 11.1633 22.8194C11.3071 22.5372 11.5368 22.3074 11.819 22.1636C11.8371 22.1544 11.9674 22.0878 12.4764 22.0463C13.1812 21.9887 13.8921 21.9953 14.6 21.9988C14.8209 21.9999 15 21.821 15 21.6001V17.4001Z" fill="#2451B2"/>
</svg>
